<?xml version="1.0" encoding="utf-8"?>
<!-- Generator: Adobe Illustrator 24.1.0, SVG Export Plug-In . SVG Version: 6.00 Build 0)  -->
<svg version="1.1" id="Layer_1" xmlns="http://www.w3.org/2000/svg" xmlns:xlink="http://www.w3.org/1999/xlink" x="0px" y="0px"
	 viewBox="0 0 95 66" style="enable-background:new 0 0 95 66;" xml:space="preserve">
<g>
	<path d="M70.2,23.7c-1.3,0-2.4,1.1-2.4,2.4c0,1.3,1.1,2.4,2.4,2.4c1.3,0,2.4-1.1,2.4-2.4C72.6,24.8,71.6,23.7,70.2,23.7z"/>
	<path d="M64.6,18.1c-1.3,0-2.4,1.1-2.4,2.4s1.1,2.4,2.4,2.4c1.3,0,2.4-1.1,2.4-2.4S65.9,18.1,64.6,18.1z"/>
	<circle cx="70.2" cy="14.8" r="2.4"/>
	<path d="M85.5,17.8L85.5,17.8L85.5,17.8c-1.3-7.7-8-13.6-16-13.6c-4.6,0-8.7,1.9-11.7,4.9H37.2c-3-3-7.1-4.9-11.7-4.9
		c-8.1,0-14.8,5.9-16,13.6h0l0,0L5.3,49c0,6.3,5.1,11.3,11.3,11.3c3.9,0,7.4-2,9.4-5h0L32.3,45c-2-1.4-3.4-3.8-3.4-6.4
		c0-4.3,3.5-7.8,7.8-7.8c4.3,0,7.7,3.4,7.8,7.7h6c0.1-4.3,3.5-7.7,7.8-7.7c4.3,0,7.8,3.5,7.8,7.8c0,2.7-1.3,5-3.4,6.4L69,55.3h0
		c2,3,5.5,5,9.4,5c6.3,0,11.3-5.1,11.3-11.3L85.5,17.8z M33.8,23.7H28v5.8h-6.5v-5.8h-5.8v-6.5h5.8v-5.8H28v5.8h5.8V23.7z
		 M70.2,11.4c1.9,0,3.4,1.5,3.4,3.4s-1.5,3.4-3.4,3.4s-3.4-1.5-3.4-3.4S68.4,11.4,70.2,11.4z M64.6,23.9c-1.9,0-3.4-1.5-3.4-3.4
		s1.5-3.4,3.4-3.4c1.9,0,3.4,1.5,3.4,3.4S66.5,23.9,64.6,23.9z M70.2,29.5c-1.9,0-3.4-1.5-3.4-3.4s1.5-3.4,3.4-3.4s3.4,1.5,3.4,3.4
		S72.1,29.5,70.2,29.5z M75.9,23.9c-1.9,0-3.4-1.5-3.4-3.4s1.5-3.4,3.4-3.4s3.4,1.5,3.4,3.4S77.7,23.9,75.9,23.9z"/>
	<circle cx="75.9" cy="20.5" r="2.4"/>
	<polygon points="27,12.4 22.5,12.4 22.5,18.2 16.7,18.2 16.7,22.7 22.5,22.7 22.5,28.5 27,28.5 27,22.7 32.8,22.7 32.8,18.2 
		27,18.2 	"/>
	<path d="M58.3,32.6c-3.3,0-6,2.7-6,6s2.7,6,6,6c3.3,0,6-2.7,6-6S61.6,32.6,58.3,32.6z M58.3,43.1c-2.5,0-4.5-2-4.5-4.5
		s2-4.5,4.5-4.5s4.5,2,4.5,4.5S60.8,43.1,58.3,43.1z"/>
	<path d="M36.7,32.6c-3.3,0-6,2.7-6,6s2.7,6,6,6c3.3,0,6-2.7,6-6S40,32.6,36.7,32.6z M36.7,43.1c-2.5,0-4.5-2-4.5-4.5s2-4.5,4.5-4.5
		s4.5,2,4.5,4.5S39.2,43.1,36.7,43.1z"/>
</g>
</svg>
