<svg id="Laag_1" data-name="Laag 1" xmlns="http://www.w3.org/2000/svg" xmlns:xlink="http://www.w3.org/1999/xlink" viewBox="0 0 375 846.95"><defs><style>.cls-1{fill:none;}.cls-2{fill:#fff;}.cls-3{clip-path:url(#clip-path);}.cls-4{fill:#bbedf2;}.cls-5{fill:#4465a6;}.cls-6{fill:#f29494;}</style><clipPath id="clip-path" transform="translate(0.12 38.95)"><rect class="cls-1" x="-0.12" y="-1.86" width="375" height="813.96"/></clipPath></defs><rect class="cls-2" x="0.12" y="40.95" width="372" height="806"/><g class="cls-3"><g id="Mask_Group_16" data-name="Mask Group 16"><g id="Group_101" data-name="Group 101"><path id="Path_204" data-name="Path 204" class="cls-4" d="M374.88-18.59V322.05C168.73,319,178.2,133.89,178.2,133.89" transform="translate(0.12 38.95)"/><path id="Path_205" data-name="Path 205" class="cls-5" d="M263.38-38.95h111.5V41.81S357.21,88,274.42,140.63s-31,74.12-46.07,127.52c0,0-10.9,110.34-131,86.87C11.64,338.28-.12,300.83-.12,300.83V128.41l78-141.6Z" transform="translate(0.12 38.95)"/><path id="Path_206" data-name="Path 206" class="cls-6" d="M-.12-21.91V129.64S38.76,137.34,70,73.35s87.35-71.69,120-77,67.67-13.95,73.43-18.28Z" transform="translate(0.12 38.95)"/></g></g></g></svg>